<mxfile host="www.draw.io" modified="2020-02-07T09:16:42.421Z" agent="Mozilla/5.0 (Macintosh; Intel Mac OS X 10_15_2) AppleWebKit/537.36 (KHTML, like Gecko) Chrome/79.0.3945.117 Safari/537.36" etag="7WH_XjEzJgkz_-78-_8N" version="12.6.6" type="github">
  <diagram id="YgkOcZPTPB4njItYnsO_" name="第 1 页">
    <mxGraphModel dx="786" dy="394" grid="1" gridSize="10" guides="1" tooltips="1" connect="1" arrows="1" fold="1" page="1" pageScale="1" pageWidth="827" pageHeight="1169" math="0" shadow="0">
      <root>
        <mxCell id="0"/>
        <mxCell id="1" parent="0"/>
        <mxCell id="oHhY_MW36V9heUbTw2ae-3" value="" style="edgeStyle=orthogonalEdgeStyle;rounded=0;orthogonalLoop=1;jettySize=auto;html=1;" parent="1" source="oHhY_MW36V9heUbTw2ae-1" target="oHhY_MW36V9heUbTw2ae-2" edge="1">
          <mxGeometry relative="1" as="geometry"/>
        </mxCell>
        <mxCell id="oHhY_MW36V9heUbTw2ae-1" value="" style="rounded=0;whiteSpace=wrap;html=1;" parent="1" vertex="1">
          <mxGeometry x="60" y="120" width="120" height="60" as="geometry"/>
        </mxCell>
        <mxCell id="oHhY_MW36V9heUbTw2ae-5" value="" style="edgeStyle=orthogonalEdgeStyle;rounded=0;orthogonalLoop=1;jettySize=auto;html=1;" parent="1" source="oHhY_MW36V9heUbTw2ae-2" target="oHhY_MW36V9heUbTw2ae-4" edge="1">
          <mxGeometry relative="1" as="geometry"/>
        </mxCell>
        <mxCell id="oHhY_MW36V9heUbTw2ae-2" value="" style="rounded=0;whiteSpace=wrap;html=1;fillColor=#dae8fc;strokeColor=#6c8ebf;" parent="1" vertex="1">
          <mxGeometry x="60" y="260" width="120" height="60" as="geometry"/>
        </mxCell>
        <mxCell id="oHhY_MW36V9heUbTw2ae-4" value="" style="rounded=0;whiteSpace=wrap;html=1;direction=west;" parent="1" vertex="1">
          <mxGeometry x="260" y="260" width="120" height="60" as="geometry"/>
        </mxCell>
      </root>
    </mxGraphModel>
  </diagram>
</mxfile>
